<?xml version="1.0" encoding="UTF-8" standalone="no"?>
<!-- Created with Inkscape (http://www.inkscape.org/) -->

<svg
   width="38.2407mm"
   height="33.081318mm"
   viewBox="0 0 38.2407 33.081318"
   version="1.1"
   id="svg1"
   inkscape:version="1.3.2 (091e20e, 2023-11-25, custom)"
   sodipodi:docname="logo.svg"
   xmlns:inkscape="http://www.inkscape.org/namespaces/inkscape"
   xmlns:sodipodi="http://sodipodi.sourceforge.net/DTD/sodipodi-0.dtd"
   xmlns="http://www.w3.org/2000/svg"
   xmlns:svg="http://www.w3.org/2000/svg">
  <sodipodi:namedview
     id="namedview1"
     pagecolor="#ffffff"
     bordercolor="#000000"
     borderopacity="0.25"
     inkscape:showpageshadow="2"
     inkscape:pageopacity="0.0"
     inkscape:pagecheckerboard="0"
     inkscape:deskcolor="#d1d1d1"
     inkscape:document-units="px"
     inkscape:clip-to-page="false"
     inkscape:zoom="2.0485264"
     inkscape:cx="18.793997"
     inkscape:cy="47.107032"
     inkscape:window-width="1920"
     inkscape:window-height="1009"
     inkscape:window-x="-8"
     inkscape:window-y="-8"
     inkscape:window-maximized="1"
     inkscape:current-layer="layer1" />
  <defs
     id="defs1" />
  <g
     inkscape:label="Capa 1"
     inkscape:groupmode="layer"
     id="layer1"
     transform="translate(-12.170831,-43.127082)">
    <g
       id="g162"
       transform="matrix(0.26458333,0,0,0.26458333,-76.483399,-41.979453)">
			<path
   style="opacity:0.43;fill:#e5d7bd"
   d="m 476.976,387.31 c -0.097,-0.399 -0.097,-0.811 10e-4,-1.209 l 2.544,-10.363 c 0.446,-1.815 -1.152,-3.525 -3.294,-3.525 h -4.724 l -5.314,-22.712 c -1.597,-6.825 -6.975,-12.124 -13.823,-13.62 l -38.848,-8.486 -2.953,-1.431 c -0.83,-0.402 -1.799,-0.402 -2.629,0 l -2.572,1.246 v 0 l 0.037,-0.018 c -0.092,0.018 -0.182,0.036 -0.274,0.057 -0.007,0.002 -0.015,0.002 -0.022,0.004 l -39.502,8.629 c -6.848,1.496 -12.226,6.795 -13.823,13.62 l -5.314,22.712 h -4.026 c -2.14,0 -3.737,1.706 -3.295,3.52 l 2.553,10.482 c 0.097,0.399 0.097,0.811 -10e-4,1.209 l -2.544,10.363 c -0.446,1.815 1.152,3.525 3.294,3.525 h 4.349 l 5.068,22.578 c 1.548,6.897 6.954,12.272 13.86,13.781 l 39.381,8.603 c 2.557,0.559 5.204,0.559 7.76,0 l 39.381,-8.603 c 6.906,-1.509 12.312,-6.883 13.86,-13.781 l 5.068,-22.578 h 5.06 c 2.14,0 3.737,-1.706 3.295,-3.52 z"
   id="path145" />

			<g
   id="g161">
				<path
   style="fill:#0a4863"
   d="m 347.863,419.89 -7.65,-34.083 c -0.601,-2.676 -0.588,-5.453 0.037,-8.124 l 7.53,-32.182 c 1.597,-6.825 6.975,-12.124 13.823,-13.62 l 39.502,-8.629 c 2.557,-0.558 5.204,-0.558 7.76,0 l 39.501,8.629 c 6.848,1.496 12.226,6.795 13.823,13.62 l 7.53,32.182 c 0.625,2.671 0.637,5.448 0.037,8.124 l -7.65,34.083 c -1.548,6.897 -6.954,12.272 -13.86,13.781 l -39.381,8.603 c -2.557,0.559 -5.204,0.559 -7.76,0 l -39.381,-8.603 c -6.907,-1.509 -12.312,-6.883 -13.861,-13.781 z"
   id="path146" />

				<path
   style="fill:#ffffff"
   d="m 404.985,436.624 c -0.867,0 -1.737,-0.094 -2.585,-0.279 l -39.381,-8.603 c -4.582,-1.001 -8.206,-4.605 -9.234,-9.181 l -7.65,-34.082 c -0.398,-1.772 -0.39,-3.644 0.024,-5.412 l 7.53,-32.182 c 1.058,-4.521 4.673,-8.083 9.209,-9.074 l 39.502,-8.629 c 0.847,-0.185 1.717,-0.279 2.585,-0.279 0.868,0 1.738,0.094 2.585,0.279 l 39.501,8.629 c 4.536,0.991 8.151,4.553 9.209,9.074 l 7.53,32.182 c 0.414,1.768 0.422,3.64 0.024,5.411 l -7.65,34.084 c -1.027,4.576 -4.651,8.18 -9.233,9.181 l -39.381,8.603 c -0.848,0.184 -1.718,0.278 -2.585,0.278 z"
   id="path147" />

				<path
   style="fill:#0a4863"
   d="m 439.394,334.264 h -1.076 c -0.53,-0.588 -1.173,-1.073 -1.909,-1.428 l -13.398,-6.49 -14.147,-3.092 c -2.556,-0.559 -5.201,-0.559 -7.76,0 l -13.181,2.879 -13.831,6.704 c -1.402,0.682 -2.465,1.822 -3.04,3.195 l 31.347,-6.849 c 0.846,-0.184 1.719,-0.281 2.585,-0.281 0.869,0 1.738,0.097 2.585,0.281 l 36.287,7.928 c -0.782,-1.681 -2.488,-2.847 -4.462,-2.847 z"
   id="path148" />

				<path
   style="fill:#ea9d21"
   d="m 404.985,430.555 c -0.433,0 -0.866,-0.047 -1.29,-0.139 l -39.381,-8.603 c -2.286,-0.5 -4.095,-2.298 -4.607,-4.581 l -7.65,-34.082 c -0.199,-0.885 -0.195,-1.818 0.012,-2.7 l 7.53,-32.182 c 0.528,-2.256 2.332,-4.033 4.596,-4.528 l 39.501,-8.629 c 0.422,-0.092 0.857,-0.139 1.29,-0.139 0.433,0 0.868,0.047 1.291,0.139 l 39.5,8.629 c 2.264,0.495 4.067,2.272 4.595,4.528 l 7.53,32.182 c 0.206,0.882 0.21,1.816 0.012,2.699 l -7.65,34.084 c -0.512,2.283 -2.321,4.081 -4.607,4.581 l -39.381,8.603 c -0.425,0.091 -0.859,0.138 -1.291,0.138 z"
   id="path149" />

				<polygon
   style="fill:#d38009"
   points="453.364,403.42 356.605,403.42 355.235,397.314 454.734,397.314 "
   id="polygon149" />

				<g
   id="g156">
					<path
   style="fill:#0a4863"
   d="m 427.787,337.253 h -45.074 v 21.703 c 0,0 0,0.496 0,0.749 0,3.938 10.09,7.131 22.537,7.131 12.447,0 22.537,-3.193 22.537,-7.131 0,-0.253 0,-0.749 0,-0.749 z"
   id="path150" />

					<path
   style="fill:#0a4863"
   d="m 403.935,321.964 -28.434,13.779 c -2.267,1.099 -2.267,4.328 0,5.426 l 28.434,13.78 c 0.83,0.402 1.799,0.402 2.63,0 l 28.434,-13.78 c 2.267,-1.099 2.267,-4.328 0,-5.426 l -28.434,-13.779 c -0.83,-0.402 -1.799,-0.402 -2.63,0 z"
   id="path151" />

					<path
   style="fill:#0a4863"
   d="m 427.787,350.738 v -6.076 l -21.221,10.286 c -0.832,0.404 -1.799,0.404 -2.631,0 l -21.221,-10.286 v 6.076 l 21.221,10.285 c 0.832,0.404 1.799,0.404 2.631,0 z"
   id="path152" />

					<g
   id="g155">
						<path
   style="fill:#d86d0e"
   d="m 441.088,347.555 h -1.131 v -8.368 c 0,-0.311 -0.253,-0.563 -0.563,-0.563 H 405.25 v -1.131 h 34.144 c 0.934,0 1.694,0.76 1.694,1.694 z"
   id="path153" />

						<path
   style="fill:#0a4863"
   d="m 441.802,360.738 0.163,-2.116 0.293,2.116 h 1.391 l -0.407,-5.249 c 0,-1.194 -1.591,-1.79 -1.591,-1.79 l -0.663,-0.136 V 353.4 l -0.398,0.081 -0.398,-0.081 v 0.163 l -0.663,0.136 c 0,0 -1.591,0.597 -1.591,1.79 l -0.503,5.249 z"
   id="path154" />

						<path
   style="fill:#d86d0e"
   d="m 441.517,352.107 h -1.989 v 1.591 0 c 0.612,0.367 1.377,0.367 1.989,0 v 0 z"
   id="path155" />

						<circle
   style="fill:#0a4863"
   cx="440.491"
   cy="350.11801"
   r="2.586"
   id="circle155" />

					</g>

				</g>

				<path
   style="fill:#0a4863"
   d="m 401.104,323.254 c 0.1,-0.023 0.197,-0.042 0.297,-0.061 l -23.329,11.304 -7.02,1.535 c 0.575,-1.373 1.638,-2.513 3.04,-3.195 l 13.831,-6.704 z"
   id="path156" />

				<path
   style="fill:#0a4863"
   d="m 443.855,337.11 -10.991,-2.4 -23.345,-11.314 13.491,2.95 13.398,6.49 c 0.737,0.355 1.379,0.84 1.909,1.428 h 1.076 c 1.975,0 3.681,1.166 4.462,2.846 z"
   id="path157" />

				
					<text
   style="font-size:23.5086px;font-family:BebasNeueBold;letter-spacing:2;fill:#ffffff"
   id="text157"
   x="373.75598"
   y="419.32199">2024</text>

				<path
   style="fill:#0a4863"
   d="m 475.529,393.793 -2.553,-10.482 c -0.097,-0.399 -0.097,-0.811 10e-4,-1.209 l 2.544,-10.363 c 0.446,-1.815 -1.152,-3.525 -3.294,-3.525 h -67.765 -14.99 -51.032 c -2.14,0 -3.737,1.706 -3.295,3.52 l 2.553,10.482 c 0.097,0.399 0.097,0.811 -10e-4,1.209 l -2.544,10.363 c -0.446,1.815 1.152,3.525 3.294,3.525 h 51.348 14.668 67.771 c 2.139,0 3.737,-1.707 3.295,-3.52 z"
   id="path158" />

				
					
				<g
   id="g160">
					<path
   style="fill:#ffffff"
   d="m 464.537,377.936 1.135,2.3 c 0.065,0.132 0.191,0.224 0.337,0.245 l 2.538,0.369 c 0.367,0.053 0.514,0.505 0.248,0.764 l -1.837,1.79 c -0.106,0.103 -0.154,0.251 -0.129,0.396 l 0.434,2.528 c 0.063,0.366 -0.321,0.645 -0.65,0.472 l -2.27,-1.194 c -0.13,-0.069 -0.286,-0.069 -0.417,0 l -2.27,1.194 c -0.329,0.173 -0.713,-0.106 -0.65,-0.472 l 0.434,-2.528 c 0.025,-0.145 -0.023,-0.293 -0.129,-0.396 l -1.837,-1.79 c -0.266,-0.259 -0.119,-0.711 0.248,-0.764 l 2.538,-0.369 c 0.146,-0.021 0.272,-0.113 0.337,-0.245 l 1.135,-2.3 c 0.166,-0.333 0.64,-0.333 0.805,0 z"
   id="path159" />

					<path
   style="fill:#ffffff"
   d="m 346.94,377.936 1.135,2.3 c 0.065,0.132 0.191,0.224 0.337,0.245 l 2.538,0.369 c 0.367,0.053 0.514,0.505 0.248,0.764 l -1.837,1.79 c -0.106,0.103 -0.154,0.251 -0.129,0.396 l 0.434,2.528 c 0.063,0.366 -0.321,0.645 -0.65,0.472 l -2.27,-1.194 c -0.13,-0.069 -0.286,-0.069 -0.417,0 l -2.27,1.194 c -0.329,0.173 -0.713,-0.106 -0.65,-0.472 l 0.434,-2.528 c 0.025,-0.145 -0.023,-0.293 -0.129,-0.396 l -1.837,-1.79 c -0.266,-0.259 -0.119,-0.711 0.248,-0.764 l 2.538,-0.369 c 0.146,-0.021 0.272,-0.113 0.337,-0.245 l 1.135,-2.3 c 0.166,-0.333 0.641,-0.333 0.805,0 z"
   id="path160" />

				</g>

			</g>

		</g>
    <text
       xml:space="preserve"
       style="font-size:2.99876px;fill:#ffffff;stroke-width:2.98953;stroke-dasharray:none"
       x="16.347988"
       y="62.859539"
       id="text194-7"
       transform="scale(1.0415954,0.96006569)"><tspan
         sodipodi:role="line"
         id="tspan194-1"
         x="16.347988"
         y="62.859539"
         style="font-style:normal;font-variant:normal;font-weight:normal;font-stretch:normal;font-size:2.99876px;font-family:'Arial Rounded MT Bold';-inkscape-font-specification:'Arial Rounded MT Bold, Normal';font-variant-ligatures:normal;font-variant-caps:normal;font-variant-numeric:normal;font-variant-east-asian:normal;fill:#ffffff;stroke-width:2.98953;stroke-dasharray:none">CAMPUS VIRTUAL</tspan></text>
  </g>
</svg>
